<svg height="512pt" viewBox="0 0 512 512" width="512pt" xmlns="http://www.w3.org/2000/svg"><path d="m500.757812 261.621094c0 85.941406-43.339843 161.785156-109.316406 206.875-6.734375 4.601562-15.871094-.25-15.871094-8.40625 0-33.980469-27.546874-61.527344-61.527343-61.527344h-265.039063c-5.277344 0-10.140625-2.785156-12.878906-7.292969-23.5625-38.855469-36.847656-84.640625-36.09375-133.574219 2.089844-136.507812 114.339844-246.726562 250.859375-246.453124 138.046875.277343 249.867187 112.269531 249.867187 250.378906zm0 0" fill="#fdb44c"/><path d="m166.578125 27.59375c0-15.242188 12.355469-27.59375 27.59375-27.59375h7.152344c15.238281 0 27.59375 12.351562 27.59375 27.59375v64.382812h-62.339844zm0 0" fill="#df3d9b"/><path d="m448.636719 143.074219v122.632812c0 5.644531-4.574219 10.222657-10.21875 10.222657v5.109374h-306.585938v-5.109374c-28.21875 0-51.097656-22.878907-51.097656-51.097657v-40.878906c0-28.222656 22.878906-51.097656 51.097656-51.097656v-5.109375h261.621094v5.109375h44.964844c5.644531 0 10.21875 4.574219 10.21875 10.21875zm0 0" fill="#528ed7"/><path d="m169.644531 275.929688v5.109374l-37.8125-5.109374c-28.21875 0-51.097656-22.878907-51.097656-51.097657v-40.878906c0-28.222656 22.878906-51.097656 51.097656-51.097656l37.8125-5.109375v5.109375c-28.21875 0-51.097656 22.875-51.097656 51.097656v40.878906c0 28.21875 22.878906 51.097657 51.097656 51.097657zm0 0" fill="#0573cd"/><path d="m387.316406 388.355469v34.636719h-293.644531c-8.253906 0-16.042969 1.964843-22.945313 5.441406-2.914062 1.46875-6.46875.707031-8.621093-1.746094-9.625-10.96875-18.308594-22.777344-25.917969-35.3125 9.070312-8.226562 21.109375-13.238281 34.320312-13.238281h6.132813v-15.84375h300.453125v15.84375c5.644531-.003907 10.222656 4.574219 10.222656 10.21875zm6.128906-357.6875h-306.585937c-28.21875 0-51.097656 22.878906-51.097656 51.097656 0 28.222656 22.878906 51.097656 51.097656 51.097656h306.585937c5.644532 0 10.222657-4.574219 10.222657-10.21875v-81.757812c0-5.640625-4.578125-10.21875-10.222657-10.21875zm0 0" fill="#2b6c7e"/><path d="m39.855469 132.855469c-11.289063 0-20.4375-9.152344-20.4375-20.441407v-61.316406c0-11.289062 9.148437-20.4375 20.4375-20.4375 11.289062 0 20.441406 9.148438 20.441406 20.4375v61.316406c0 11.289063-9.152344 20.441407-20.441406 20.441407zm0 0" fill="#235967"/><path d="m402.648438 107.304688h-306.585938c-14.109375 0-25.546875-11.4375-25.546875-25.546876 0-14.113281 11.4375-25.550781 25.546875-25.550781h306.585938c2.824218 0 5.113281 2.289063 5.113281 5.109375v40.878906c0 2.820313-2.289063 5.109376-5.113281 5.109376zm50.078124 127.746093v-61.316406c0-2.824219-2.289062-5.113281-5.109374-5.113281h-306.585938c-14.113281 0-25.550781 11.441406-25.550781 25.550781v20.4375c0 14.113281 11.4375 25.550781 25.550781 25.550781h306.585938c2.820312 0 5.109374-2.289062 5.109374-5.109375zm-66.425781 178.839844h-306.589843c-6.949219 0-13.25 4.789063-17.855469 12.511719 45.894531 52.464844 113.339843 85.597656 188.523437 85.597656 52.308594 0 100.863282-16.050781 141.03125-43.480469v-45.867187c0-4.839844-2.289062-8.761719-5.109375-8.761719zm0 0" fill="#ade8f0"/><path d="m402.648438 107.304688h-274.394532c-14.109375 0-25.546875-11.4375-25.546875-25.546876 0-14.113281 11.4375-25.550781 25.546875-25.550781h274.394532c2.824218 0 5.113281 2.289063 5.113281 5.109375v40.878906c0 2.820313-2.289063 5.109376-5.113281 5.109376zm50.078124 127.746093v-61.316406c0-2.824219-2.289062-5.113281-5.109374-5.113281h-275.929688c-14.109375 0-25.546875 11.441406-25.546875 25.550781v20.4375c0 14.113281 11.4375 25.550781 25.546875 25.550781h275.929688c2.820312 0 5.109374-2.289062 5.109374-5.109375zm-335.015624 200.914063c40.402343 41.632812 95.148437 69.257812 156.265624 74.933594 43.292969-4.050782 83.378907-19.121094 117.433594-42.378907v-45.867187c0-4.835938-2.289062-8.757813-5.109375-8.757813h-259.566406c-.347656 0-.691406.011719-1.039063.035157-10.855468.746093-15.566406 14.222656-7.984374 22.035156zm0 0" fill="#d3f1f5"/><path d="m166.578125 191.359375c0-4.230469 3.433594-7.664063 7.664063-7.664063h278.484374v15.332032h-278.484374c-4.230469 0-7.664063-3.433594-7.664063-7.667969zm-37.300781-101.9375h278.484375v-15.328125h-278.484375c-4.234375 0-7.664063 3.429688-7.664063 7.664062 0 4.230469 3.429688 7.664063 7.664063 7.664063zm30.660156 355.460937h231.472656v-15.328124h-231.472656c-4.234375 0-7.667969 3.429687-7.667969 7.664062s3.433594 7.664062 7.667969 7.664062zm44.453125 25.175782c0 4.234375 3.433594 7.664062 7.664063 7.664062h164.820312c4.953125-2.90625 9.804688-5.972656 14.535156-9.203125v-6.125h-179.355468c-4.230469 0-7.664063 3.429688-7.664063 7.664063zm22.996094-242.417969h225.339843v-15.328125h-225.339843c-4.234375 0-7.667969 3.429688-7.667969 7.664062 0 4.234376 3.433594 7.664063 7.667969 7.664063zm0 0" fill="#ade8f0"/><path d="m191.785156 0h2.386719c-.804687 0-1.597656.0429688-2.386719.109375zm111.734375 0h-109.347656c15.238281 0 27.59375 12.351562 27.59375 27.59375v165.347656c0 3.878906 4.148437 6.34375 7.554687 4.484375l38.863282-21.195312c6.101562-3.328125 13.472656-3.328125 19.574218 0l38.863282 21.195312c3.40625 1.859375 7.558594-.605469 7.558594-4.484375v-162.28125c0-16.933594-13.726563-30.660156-30.660157-30.660156zm0 0" fill="#f18bc3"/><path d="m494.414062 378.125h-417.769531c-28.21875 0-51.097656-22.878906-51.097656-51.097656 0-28.222656 22.878906-51.097656 51.097656-51.097656h417.769531c5.644532 0 10.21875 4.574218 10.21875 10.21875v81.753906c0 5.644531-4.574218 10.222656-10.21875 10.222656zm0 0" fill="#fc5426"/><path d="m494.414062 378.125h-372.800781c-28.222656 0-51.097656-22.878906-51.097656-51.097656 0-28.222656 22.875-51.097656 51.097656-51.097656h372.800781c5.644532 0 10.21875 4.574218 10.21875 10.21875v81.753906c0 5.644531-4.574218 10.222656-10.21875 10.222656zm0 0" fill="#fc6930"/><path d="m506.890625 352.574219h-416.617187c-14.113282 0-25.550782-11.4375-25.550782-25.546875 0-14.113282 11.4375-25.550782 25.550782-25.550782h416.617187c2.820313 0 5.109375 2.289063 5.109375 5.109376v40.878906c0 2.820312-2.289062 5.109375-5.109375 5.109375zm0 0" fill="#fde0b8"/><path d="m128.085938 327.027344c0 4.230468 3.429687 7.664062 7.664062 7.664062h376.25v12.773438c0 2.820312-2.289062 5.109375-5.109375 5.109375h-378.636719c-14.109375 0-25.546875-11.4375-25.546875-25.546875 0-14.113282 11.4375-25.550782 25.546875-25.550782h378.636719c2.820313 0 5.109375 2.289063 5.109375 5.109376v12.773437h-376.25c-4.234375 0-7.664062 3.433594-7.664062 7.667969zm0 0" fill="#fff5f5"/></svg>