<?xml version="1.0" encoding="iso-8859-1"?>
<!-- Generator: Adobe Illustrator 19.0.0, SVG Export Plug-In . SVG Version: 6.00 Build 0)  -->
<svg version="1.1" id="Layer_1" xmlns="http://www.w3.org/2000/svg" xmlns:xlink="http://www.w3.org/1999/xlink" x="0px" y="0px"
	 viewBox="0 0 473.931 473.931" style="enable-background:new 0 0 473.931 473.931;" xml:space="preserve">
<circle style="fill:#357180;" cx="236.966" cy="236.966" r="236.966"/>
<path style="fill:#414141;" d="M300.22,204.091c-5.085-3.562-19.513-5.822-36.759-6.829c0,0-15.513,8.093-23.532,8.127
	c-8.127,0.03-23.824-7.936-23.824-7.936c-16.684,1.096-30.664,3.33-35.984,6.638c-12.075,7.764-54.416,53.077-53.488,133.005
	c0.079,7.094,5.86,12.789,12.935,12.789c0.052,0,0.101,0,0.153,0c7.147-0.079,12.875-5.942,12.789-13.089
	c-0.393-34.252,12.108-60.242,27.551-77.458c-3.244,23.517-5.89,90.12-5.89,90.12c0,16.396,12.101,16.426,27.034,16.426h73.754
	c14.922,0,27.027-0.03,27.027-16.426c0,0-2.522-69.305-5.392-94.023c17.092,17.077,31.667,44.422,31.244,81.361
	c-0.086,7.147,5.643,13.01,12.789,13.089c0.052,0,0.101,0,0.153,0c7.076,0,12.857-5.691,12.935-12.789
	C354.637,257.164,312.295,211.855,300.22,204.091z"/>
<path style="fill:#E4B894;" d="M239.547,224.367c16.004,0,22.503-21.538,23.914-27.098c-7.476-0.438-7.562-22.619-23.495-22.619
	c-15.45,0-16.018,22.29-23.495,22.772C217.785,203.204,223.682,224.367,239.547,224.367z"/>
<circle style="fill:#E9C29C;" cx="237.415" cy="138.146" r="54.469"/>
<path style="fill:#A46434;" d="M291.883,138.161l-37.141-33.421c0,0-7.906,13.096-28.999,22.641
	c-20.34,9.194-42.798,10.78-42.798,10.78c0-30.08,24.381-54.469,54.469-54.469C267.495,83.692,291.883,108.081,291.883,138.161z"/>
<g>
	<ellipse style="fill:#343433;" cx="221.101" cy="146.265" rx="7.461" ry="7.876"/>
	<ellipse style="fill:#343433;" cx="253.426" cy="146.265" rx="7.461" ry="7.876"/>
</g>
<g>
	<ellipse style="fill:#FFFFFF;" cx="255.749" cy="143.272" rx="2.982" ry="3.151"/>
	<path style="fill:#FFFFFF;" d="M226.32,143.268c0,1.74-1.328,3.151-2.99,3.151c-1.643,0-2.975-1.411-2.975-3.151
		c0-1.744,1.328-3.158,2.975-3.158C224.992,140.11,226.32,141.525,226.32,143.268z"/>
</g>
<g>
	<path style="fill:#414141;" d="M237.306,80.085c31.981,0,58.289,20.86,61.616,67.273h0.359
		c-0.43-49.829-14.522-78.951-61.402-78.951c-45.331,0-62.113,29.118-62.536,78.951h0.352
		C179.017,100.945,205.325,80.085,237.306,80.085z"/>
	<path style="fill:#414141;" d="M283.973,145.577c-0.599,12.131-0.857,19.154,10.406,22.267
		c10.993,3.042,19.461-8.247,20.052-20.378c0.599-12.142-6.623-22.615-17.889-23.562
		C285.276,122.958,284.568,133.435,283.973,145.577z"/>
	<path style="fill:#414141;" d="M190.388,145.577c0.599,12.131,0.857,19.154-10.406,22.267c-10.986,3.042-19.461-8.247-20.06-20.378
		c-0.591-12.142,6.627-22.615,17.897-23.562C189.09,122.958,189.79,133.435,190.388,145.577z"/>
</g>
<g>
	<path style="fill:#2B2B2B;" d="M406.108,368.477c0,7.319-130.266,7.319-130.266,0v-6.623c0-7.311,5.934-13.25,13.25-13.25h103.774
		c7.315,0,13.242,5.938,13.242,13.25V368.477z"/>
	<path style="fill:#2B2B2B;" d="M204.244,367.186c0,7.319-130.266,7.319-130.266,0v-6.623c0-7.315,5.927-13.25,13.25-13.25h103.766
		c7.315,0,13.25,5.934,13.25,13.25V367.186L204.244,367.186z"/>
	<path style="fill:#2B2B2B;" d="M413.225,390.647c0,19.801-352.545,19.801-352.545,0v-17.919c0-19.798,352.545-19.798,352.545,0
		V390.647z"/>
</g>
<g>
</g>
<g>
</g>
<g>
</g>
<g>
</g>
<g>
</g>
<g>
</g>
<g>
</g>
<g>
</g>
<g>
</g>
<g>
</g>
<g>
</g>
<g>
</g>
<g>
</g>
<g>
</g>
<g>
</g>
</svg>
