<?xml version="1.0" encoding="iso-8859-1"?>
<!-- Generator: Adobe Illustrator 19.0.0, SVG Export Plug-In . SVG Version: 6.00 Build 0)  -->
<svg xmlns="http://www.w3.org/2000/svg" xmlns:xlink="http://www.w3.org/1999/xlink" version="1.1" id="Layer_1" x="0px" y="0px" viewBox="0 0 512 512" style="enable-background:new 0 0 512 512;" xml:space="preserve" width="512" height="512">
<g>
	<circle style="fill:#FFDA2D;" cx="256" cy="256" r="256"/>
	<path style="fill:#FDBF00;" d="M510.58,283.038L367.927,140.385L178.134,330.178l17.125,17.125l-73.705,73.705l86.488,86.488   C223.578,510.44,239.606,512,256,512C388.252,512,497.072,411.711,510.58,283.038z"/>
	<g>
		<polygon style="fill:#ECECF1;" points="377.438,163.75 377.438,421 121.5,421 121.5,85 298.688,85   "/>
		<polygon style="fill:#D3D3D8;" points="377.438,163.75 377.438,421 249.469,421 249.469,85 298.688,85   "/>
		<rect x="160.875" y="183.438" style="fill:#4BB9EC;" width="19.688" height="19.688"/>
		<rect x="200.25" y="183.438" style="fill:#D3D3D8;" width="137.813" height="19.688"/>
		<rect x="160.875" y="222.813" style="fill:#4BB9EC;" width="19.688" height="19.688"/>
		<rect x="200.25" y="222.813" style="fill:#D3D3D8;" width="137.813" height="19.688"/>
		<rect x="160.875" y="262.188" style="fill:#4BB9EC;" width="19.688" height="19.688"/>
		<rect x="200.25" y="262.188" style="fill:#D3D3D8;" width="137.813" height="19.688"/>
		<polygon style="fill:#BABAC0;" points="312.607,85 298.688,85 298.688,163.75 377.438,163.75 377.438,149.83   "/>
		<polygon style="fill:#FCCED3;" points="259.313,331.094 239.625,360.625 180.563,331.094 239.625,301.563   "/>
		<polygon style="fill:#FAAAAA;" points="180.563,331.094 259.313,331.094 239.625,360.625   "/>
		<polygon style="fill:#FF637B;" points="416.813,331.094 397.125,360.625 239.625,360.625 239.625,301.563 397.125,301.563   "/>
		<polygon style="fill:#E63950;" points="416.813,331.094 397.125,360.625 239.625,360.625 239.625,331.094   "/>
		<rect x="397.125" y="301.563" style="fill:#7C8388;" width="39.375" height="59.063"/>
		<rect x="397.125" y="331.094" style="fill:#575F64;" width="39.375" height="29.531"/>
		<rect x="249.469" y="183.438" style="fill:#BABAC0;" width="88.594" height="19.688"/>
		<rect x="249.469" y="222.813" style="fill:#BABAC0;" width="88.594" height="19.688"/>
		<rect x="249.469" y="262.188" style="fill:#BABAC0;" width="88.594" height="19.688"/>
	</g>
</g>















</svg>
