<?xml version="1.0" encoding="iso-8859-1"?>
<!-- Generator: Adobe Illustrator 19.0.0, SVG Export Plug-In . SVG Version: 6.00 Build 0)  -->
<svg version="1.1" id="Layer_1" xmlns="http://www.w3.org/2000/svg" xmlns:xlink="http://www.w3.org/1999/xlink" x="0px" y="0px"
	 viewBox="0 0 509.287 509.287" style="enable-background:new 0 0 509.287 509.287;" xml:space="preserve">
<path style="fill:#73D658;" d="M41.028,392.985c45.436,69.849,124.101,116.302,213.616,116.302s168.18-46.114,213.616-116.302
	H41.028z"/>
<path style="fill:#0090FF;" d="M509.287,254.644C509.287,113.928,395.359,0,254.644,0S0,113.928,0,254.644
	c0,51.2,15.258,98.67,41.028,138.342H468.26C494.029,353.314,509.287,305.844,509.287,254.644z"/>
<rect x="42.723" y="357.044" style="fill:#E5A45E;" width="423.841" height="35.942"/>
<rect x="155.974" y="357.044" style="fill:#D69049;" width="197.34" height="35.942"/>
<rect x="161.738" y="357.044" style="fill:#F0BA7A;" width="186.151" height="35.942"/>
<polygon style="fill:#F0582F;" points="444.864,164.789 64.424,164.789 16.954,208.53 492.334,208.53 "/>
<rect x="42.723" y="208.53" style="fill:#F0BA7A;" width="423.841" height="148.514"/>
<g>
	<rect x="42.723" y="208.53" style="fill:#E5A45E;" width="423.841" height="8.477"/>
	<rect x="155.974" y="208.53" style="fill:#E5A45E;" width="197.34" height="148.514"/>
</g>
<polygon style="fill:#F7CFA2;" points="347.55,357.044 161.738,357.044 161.738,140.037 254.644,86.125 347.55,140.037 "/>
<rect x="183.438" y="189.203" style="fill:#EBE7E8;" width="33.907" height="46.792"/>
<g>
	<rect x="186.829" y="192.254" style="fill:#0090FF;" width="10.511" height="8.138"/>
	<rect x="203.444" y="192.254" style="fill:#0090FF;" width="10.511" height="8.138"/>
	<rect x="186.829" y="205.817" style="fill:#0090FF;" width="10.511" height="26.787"/>
	<rect x="203.444" y="205.817" style="fill:#0090FF;" width="10.511" height="26.787"/>
</g>
<rect x="237.69" y="189.203" style="fill:#EBE7E8;" width="33.907" height="46.792"/>
<g>
	<rect x="241.081" y="192.254" style="fill:#0090FF;" width="10.511" height="8.138"/>
	<rect x="257.695" y="192.254" style="fill:#0090FF;" width="10.511" height="8.138"/>
	<rect x="241.081" y="205.817" style="fill:#0090FF;" width="10.511" height="26.787"/>
	<rect x="257.695" y="205.817" style="fill:#0090FF;" width="10.511" height="26.787"/>
</g>
<rect x="291.942" y="189.203" style="fill:#EBE7E8;" width="33.907" height="46.792"/>
<g>
	<rect x="295.672" y="192.254" style="fill:#0090FF;" width="10.511" height="8.138"/>
	<rect x="312.286" y="192.254" style="fill:#0090FF;" width="10.511" height="8.138"/>
	<rect x="295.672" y="205.817" style="fill:#0090FF;" width="10.511" height="26.787"/>
	<rect x="312.286" y="205.817" style="fill:#0090FF;" width="10.511" height="26.787"/>
</g>
<rect x="183.438" y="292.959" style="fill:#EBE7E8;" width="33.907" height="46.792"/>
<g>
	<rect x="186.829" y="296.35" style="fill:#0090FF;" width="10.511" height="8.138"/>
	<rect x="203.444" y="296.35" style="fill:#0090FF;" width="10.511" height="8.138"/>
	<rect x="186.829" y="309.913" style="fill:#0090FF;" width="10.511" height="26.787"/>
	<rect x="203.444" y="309.913" style="fill:#0090FF;" width="10.511" height="26.787"/>
</g>
<rect x="291.942" y="292.959" style="fill:#EBE7E8;" width="33.907" height="46.792"/>
<g>
	<rect x="295.672" y="296.35" style="fill:#0090FF;" width="10.511" height="8.138"/>
	<rect x="312.286" y="296.35" style="fill:#0090FF;" width="10.511" height="8.138"/>
	<rect x="295.672" y="309.913" style="fill:#0090FF;" width="10.511" height="26.787"/>
	<rect x="312.286" y="309.913" style="fill:#0090FF;" width="10.511" height="26.787"/>
</g>
<rect x="365.181" y="232.265" style="fill:#EBE7E8;" width="33.907" height="46.792"/>
<g>
	<rect x="368.572" y="235.317" style="fill:#0090FF;" width="10.511" height="8.138"/>
	<rect x="385.187" y="235.317" style="fill:#0090FF;" width="10.511" height="8.138"/>
	<rect x="368.572" y="249.219" style="fill:#0090FF;" width="10.511" height="26.787"/>
	<rect x="385.187" y="249.219" style="fill:#0090FF;" width="10.511" height="26.787"/>
</g>
<rect x="415.364" y="232.265" style="fill:#EBE7E8;" width="33.907" height="46.792"/>
<g>
	<rect x="418.755" y="235.317" style="fill:#0090FF;" width="10.511" height="8.138"/>
	<rect x="435.37" y="235.317" style="fill:#0090FF;" width="10.511" height="8.138"/>
	<rect x="418.755" y="249.219" style="fill:#0090FF;" width="10.511" height="26.787"/>
	<rect x="435.37" y="249.219" style="fill:#0090FF;" width="10.511" height="26.787"/>
</g>
<rect x="365.181" y="300.419" style="fill:#EBE7E8;" width="33.907" height="46.792"/>
<g>
	<rect x="368.572" y="303.809" style="fill:#0090FF;" width="10.511" height="8.138"/>
	<rect x="385.187" y="303.809" style="fill:#0090FF;" width="10.511" height="8.138"/>
	<rect x="368.572" y="317.372" style="fill:#0090FF;" width="10.511" height="26.787"/>
	<rect x="385.187" y="317.372" style="fill:#0090FF;" width="10.511" height="26.787"/>
</g>
<rect x="415.364" y="300.419" style="fill:#EBE7E8;" width="33.907" height="46.792"/>
<g>
	<rect x="418.755" y="303.809" style="fill:#0090FF;" width="10.511" height="8.138"/>
	<rect x="435.37" y="303.809" style="fill:#0090FF;" width="10.511" height="8.138"/>
	<rect x="418.755" y="317.372" style="fill:#0090FF;" width="10.511" height="26.787"/>
	<rect x="435.37" y="317.372" style="fill:#0090FF;" width="10.511" height="26.787"/>
</g>
<rect x="60.016" y="232.265" style="fill:#EBE7E8;" width="33.907" height="46.792"/>
<g>
	<rect x="63.746" y="235.317" style="fill:#0090FF;" width="10.511" height="8.138"/>
	<rect x="80.36" y="235.317" style="fill:#0090FF;" width="10.511" height="8.138"/>
	<rect x="63.746" y="249.219" style="fill:#0090FF;" width="10.511" height="26.787"/>
	<rect x="80.36" y="249.219" style="fill:#0090FF;" width="10.511" height="26.787"/>
</g>
<rect x="110.199" y="232.265" style="fill:#EBE7E8;" width="33.907" height="46.792"/>
<g>
	<rect x="113.928" y="235.317" style="fill:#0090FF;" width="10.511" height="8.138"/>
	<rect x="130.204" y="235.317" style="fill:#0090FF;" width="10.511" height="8.138"/>
	<rect x="113.928" y="249.219" style="fill:#0090FF;" width="10.511" height="26.787"/>
	<rect x="130.204" y="249.219" style="fill:#0090FF;" width="10.511" height="26.787"/>
</g>
<rect x="60.016" y="300.419" style="fill:#EBE7E8;" width="33.907" height="46.792"/>
<g>
	<rect x="63.746" y="303.809" style="fill:#0090FF;" width="10.511" height="8.138"/>
	<rect x="80.36" y="303.809" style="fill:#0090FF;" width="10.511" height="8.138"/>
	<rect x="63.746" y="317.372" style="fill:#0090FF;" width="10.511" height="26.787"/>
	<rect x="80.36" y="317.372" style="fill:#0090FF;" width="10.511" height="26.787"/>
</g>
<rect x="110.199" y="300.419" style="fill:#EBE7E8;" width="33.907" height="46.792"/>
<g>
	<rect x="113.928" y="303.809" style="fill:#0090FF;" width="10.511" height="8.138"/>
	<rect x="130.204" y="303.809" style="fill:#0090FF;" width="10.511" height="8.138"/>
	<rect x="113.928" y="317.372" style="fill:#0090FF;" width="10.511" height="26.787"/>
	<rect x="130.204" y="317.372" style="fill:#0090FF;" width="10.511" height="26.787"/>
</g>
<rect x="230.23" y="290.924" style="fill:#E5A45E;" width="48.487" height="66.458"/>
<rect x="233.282" y="293.976" style="fill:#333842;" width="42.723" height="63.068"/>
<rect x="235.317" y="296.35" style="fill:#646B79;" width="17.971" height="60.694"/>
<g>
	<rect x="240.403" y="301.436" style="fill:#414753;" width="7.799" height="22.718"/>
	<rect x="240.403" y="329.24" style="fill:#414753;" width="7.799" height="22.718"/>
</g>
<rect x="256" y="296.35" style="fill:#646B79;" width="17.971" height="60.694"/>
<g>
	<rect x="261.086" y="301.436" style="fill:#414753;" width="7.799" height="22.718"/>
	<rect x="261.086" y="329.24" style="fill:#414753;" width="7.799" height="22.718"/>
</g>
<polygon style="fill:#F0BA7A;" points="161.738,134.273 161.738,146.14 254.644,93.245 347.55,146.14 347.55,134.273 254.644,80.36 
	"/>
<polygon style="fill:#D54232;" points="254.644,85.446 347.889,138.342 367.894,138.342 254.644,72.562 141.393,138.342 
	161.399,138.342 "/>
<circle style="fill:#646B79;" cx="254.644" cy="140.715" r="29.838"/>
<circle style="fill:#FCFCFD;" cx="254.644" cy="140.715" r="23.735"/>
<polygon style="fill:#0090FF;" points="256.339,142.411 241.081,142.411 241.081,139.359 252.948,139.359 252.948,122.066 
	256.339,122.066 "/>
<rect x="159.703" y="253.287" style="fill:#F0BA7A;" width="189.881" height="9.155"/>
<polygon style="fill:#DEDEDF;" points="280.074,360.095 229.213,360.095 232.943,357.044 276.344,357.044 "/>
<rect x="229.213" y="360.095" style="fill:#BDBDBE;" width="50.861" height="5.764"/>
<polygon style="fill:#DEDEDF;" points="284.482,369.25 224.805,369.25 229.213,365.86 280.074,365.86 "/>
<rect x="224.805" y="369.25" style="fill:#BDBDBE;" width="59.338" height="5.764"/>
<polygon style="fill:#DEDEDF;" points="289.229,378.066 220.058,378.066 225.144,375.015 284.143,375.015 "/>
<rect x="220.058" y="378.066" style="fill:#BDBDBE;" width="69.171" height="5.764"/>
<polygon style="fill:#DEDEDF;" points="295.332,387.221 213.955,387.221 219.719,384.17 289.568,384.17 "/>
<rect x="213.955" y="387.221" style="fill:#BDBDBE;" width="81.377" height="5.764"/>
<g>
</g>
<g>
</g>
<g>
</g>
<g>
</g>
<g>
</g>
<g>
</g>
<g>
</g>
<g>
</g>
<g>
</g>
<g>
</g>
<g>
</g>
<g>
</g>
<g>
</g>
<g>
</g>
<g>
</g>
</svg>
