<?xml version="1.0" encoding="iso-8859-1"?>
<!-- Generator: Adobe Illustrator 19.0.0, SVG Export Plug-In . SVG Version: 6.00 Build 0)  -->
<svg version="1.1" id="Capa_1" xmlns="http://www.w3.org/2000/svg" xmlns:xlink="http://www.w3.org/1999/xlink" x="0px" y="0px"
	 viewBox="0 0 512 512" style="enable-background:new 0 0 512 512;" xml:space="preserve">
<circle style="fill:#48AEF9;" cx="256" cy="256" r="256"/>
<path style="fill:#91A5B7;" d="M142.339,485.427C176.587,502.426,215.172,512,256,512s79.413-9.574,113.661-26.573H142.339z"/>
<path style="fill:#7D92A8;" d="M183.199,485.427h-40.86c13.03,6.467,26.69,11.852,40.86,16.052V485.427z"/>
<g>
	<path style="fill:#68C4FC;" d="M420.855,171.883h-38.018c-7.358,0-13.323,5.965-13.323,13.323s5.965,13.323,13.323,13.323h6.354
		c7.358,0,13.323,5.965,13.323,13.323s-5.965,13.323-13.323,13.323h-33.354c-7.358,0-13.323,5.965-13.323,13.323
		s5.965,13.323,13.323,13.323h65.018V171.883z"/>
	<path style="fill:#68C4FC;" d="M177.216,293.454c-6.843,0-61.513,0-68.354,0c-7.358,0-13.323-5.965-13.323-13.323
		s5.965-13.323,13.323-13.323h20.702c7.358,0,13.323-5.965,13.323-13.323s-5.965-13.323-13.323-13.323H0.502
		C0.182,245.402,0,250.679,0,256c0,42.315,10.275,82.228,28.454,117.392h133.545c7.358,0,13.323-5.965,13.323-13.323
		s-5.965-13.323-13.323-13.323h-34.611c-7.358,0-13.323-5.965-13.323-13.323s5.965-13.323,13.323-13.323c10.261,0,38.894,0,49.829,0
		c7.358,0,13.323-5.965,13.323-13.323S184.574,293.454,177.216,293.454z"/>
</g>
<g>
	<path style="fill:#CECCCA;" d="M88.486,46.314c-4.143,0-7.5-3.357-7.5-7.5V11.269c0-4.143,3.357-7.5,7.5-7.5s7.5,3.357,7.5,7.5
		v27.546C95.986,42.957,92.628,46.314,88.486,46.314z"/>
	<path style="fill:#CECCCA;" d="M144.204,46.314c-4.143,0-7.5-3.357-7.5-7.5V11.269c0-4.143,3.357-7.5,7.5-7.5s7.5,3.357,7.5,7.5
		v27.546C151.704,42.957,148.346,46.314,144.204,46.314z"/>
	<path style="fill:#CECCCA;" d="M199.922,46.314c-4.143,0-7.5-3.357-7.5-7.5V11.269c0-4.143,3.357-7.5,7.5-7.5s7.5,3.357,7.5,7.5
		v27.546C207.422,42.957,204.065,46.314,199.922,46.314z"/>
	<path style="fill:#CECCCA;" d="M255.641,46.314c-4.143,0-7.5-3.357-7.5-7.5V11.269c0-4.143,3.357-7.5,7.5-7.5
		c4.143,0,7.5,3.357,7.5,7.5v27.546C263.141,42.957,259.784,46.314,255.641,46.314z"/>
	<path style="fill:#CECCCA;" d="M311.359,46.314c-4.143,0-7.5-3.357-7.5-7.5V11.269c0-4.143,3.357-7.5,7.5-7.5s7.5,3.357,7.5,7.5
		v27.546C318.859,42.957,315.501,46.314,311.359,46.314z"/>
	<path style="fill:#CECCCA;" d="M367.078,46.314c-4.143,0-7.5-3.357-7.5-7.5V11.269c0-4.143,3.357-7.5,7.5-7.5s7.5,3.357,7.5,7.5
		v27.546C374.578,42.957,371.22,46.314,367.078,46.314z"/>
	<path style="fill:#CECCCA;" d="M423.514,46.314c-4.143,0-7.5-3.357-7.5-7.5V11.269c0-4.143,3.357-7.5,7.5-7.5
		c4.142,0,7.5,3.357,7.5,7.5v27.546C431.014,42.957,427.657,46.314,423.514,46.314z"/>
	<path style="fill:#CECCCA;" d="M36.47,46.314c-4.143,0-7.5-3.357-7.5-7.5V11.269c0-4.143,3.357-7.5,7.5-7.5s7.5,3.357,7.5,7.5
		v27.546C43.97,42.957,40.613,46.314,36.47,46.314z"/>
	<path style="fill:#CECCCA;" d="M474.59,46.314c-4.143,0-7.5-3.357-7.5-7.5V11.269c0-4.143,3.357-7.5,7.5-7.5s7.5,3.357,7.5,7.5
		v27.546C482.09,42.957,478.733,46.314,474.59,46.314z"/>
</g>
<g>
	<path style="fill:#7D92A8;" d="M152.945,155.451c-4.143,0-7.5-3.357-7.5-7.5v-13.263c0-4.143,3.357-7.5,7.5-7.5s7.5,3.357,7.5,7.5
		v13.263C160.445,152.094,157.087,155.451,152.945,155.451z"/>
	<path style="fill:#7D92A8;" d="M256.038,155.451c-4.143,0-7.5-3.357-7.5-7.5v-13.263c0-4.143,3.357-7.5,7.5-7.5s7.5,3.357,7.5,7.5
		v13.263C263.538,152.094,260.18,155.451,256.038,155.451z"/>
	<path style="fill:#7D92A8;" d="M359.129,155.451c-4.143,0-7.5-3.357-7.5-7.5v-13.263c0-4.143,3.357-7.5,7.5-7.5s7.5,3.357,7.5,7.5
		v13.263C366.629,152.094,363.272,155.451,359.129,155.451z"/>
</g>
<path style="fill:#EFEFEF;" d="M486.733,367.033V96.857v-0.14V49.014c0-9.391-7.64-17.03-17.03-17.03h-45.624
	c-0.405-0.031-0.812-0.035-1.216,0H89.134c-0.402-0.035-0.806-0.03-1.208,0H42.059c-9.259,0-16.792,7.533-16.792,16.792v47.942v0.14
	v270.175c5.474,11.355,11.766,22.24,18.792,32.587h44.427c4.143,0,7.5-3.357,7.5-7.5V104.357h320.028v287.762
	c0,4.143,3.357,7.5,7.5,7.5h44.427C474.967,389.272,481.259,378.387,486.733,367.033z M432.293,384.619l19.081-19.6l19.081,19.6
	H432.293z M451.374,136.086l17.393,17.865l-17.393,17.865l-17.393-17.865L451.374,136.086z M441.418,104.357h19.91l-9.955,10.226
	L441.418,104.357z M433.981,211.185l17.393-17.865l17.393,17.865l-17.393,17.865L433.981,211.185z M468.766,268.418l-17.393,17.865
	l-17.393-17.865l17.393-17.865L468.766,268.418z M440.907,182.568l-9.893,10.161v-20.322L440.907,182.568z M440.907,239.801
	l-9.893,10.161V229.64L440.907,239.801z M440.907,297.035l-9.893,10.161v-20.322L440.907,297.035z M451.374,307.786l17.393,17.865
	l-17.393,17.865l-17.393-17.865L451.374,307.786z M471.733,364.429l-9.893-10.161l9.893-10.161V364.429z M471.733,307.196
	l-9.893-10.161l9.893-10.161V307.196z M471.733,249.962l-9.893-10.161l9.893-10.161V249.962z M471.733,192.729l-9.893-10.161
	l9.893-10.161V192.729z M471.733,57.861v20.204l-9.872-10.102L471.733,57.861z M471.733,115.173v20.322l-9.893-10.161
	L471.733,115.173z M461.389,46.983l-10.016,10.249l-10.015-10.249H461.389z M451.374,78.695l10.283,10.523H441.09L451.374,78.695z
	 M431.014,135.496v-20.322l9.893,10.161L431.014,135.496z M405.088,46.983l-10.151,10.388l-10.151-10.388H405.088z M349.37,46.983
	l-10.152,10.388l-10.152-10.388H349.37z M293.651,46.983L283.5,57.372l-10.151-10.388L293.651,46.983L293.651,46.983z
	 M237.934,46.983l-10.152,10.388L217.63,46.983H237.934z M182.215,46.983l-10.152,10.388l-10.152-10.388H182.215z M126.496,46.983
	l-10.151,10.388l-10.151-10.388H126.496z M70.642,46.983L60.626,57.232L50.611,46.983H70.642z M60.626,78.695L70.91,89.218H50.343
	L60.626,78.695z M43.234,268.418l17.393-17.865l17.393,17.865l-17.393,17.865L43.234,268.418z M78.019,325.651l-17.393,17.865
	l-17.393-17.865l17.393-17.865L78.019,325.651z M43.234,211.185l17.393-17.865l17.393,17.865L60.626,229.05L43.234,211.185z
	 M43.234,153.951l17.393-17.865l17.393,17.865l-17.393,17.865L43.234,153.951z M50.671,104.357h19.91l-9.955,10.226L50.671,104.357z
	 M40.267,57.861l9.873,10.102l-9.873,10.102V57.861z M40.267,115.173l9.893,10.161l-9.893,10.161V115.173z M40.267,172.407
	l9.893,10.161l-9.893,10.161V172.407z M40.267,229.64l9.893,10.161l-9.893,10.161V229.64z M40.267,286.874l9.893,10.161
	l-9.893,10.161V286.874z M40.267,344.107l9.893,10.161l-9.893,10.161V344.107z M41.545,384.619l19.081-19.6l19.081,19.6H41.545z
	 M80.986,364.429l-9.893-10.161l9.893-10.161V364.429z M80.986,307.196l-9.893-10.161l9.893-10.161V307.196z M80.986,249.962
	l-9.893-10.161l9.893-10.161V249.962z M80.986,192.729l-9.893-10.161l9.893-10.161V192.729z M80.986,135.496l-9.893-10.161
	l9.893-10.161V135.496z M88.554,85.81l-17.44-17.847l17.304-17.707l17.44,17.847L88.554,85.81z M106.062,89.357l10.283-10.523
	l10.283,10.523H106.062z M144.204,85.88l-17.372-17.777l17.372-17.777l17.372,17.777L144.204,85.88z M161.78,89.357l10.283-10.523
	l10.283,10.523H161.78z M199.922,85.88L182.55,68.103l17.372-17.777l17.372,17.777L199.922,85.88z M217.499,89.357l10.283-10.523
	l10.283,10.523H217.499z M255.641,85.88l-17.372-17.777l17.372-17.777l17.372,17.777L255.641,85.88z M273.217,89.357L283.5,78.835
	l10.283,10.523L273.217,89.357L273.217,89.357z M311.359,85.88l-17.372-17.777l17.372-17.777l17.372,17.777L311.359,85.88z
	 M328.935,89.357l10.283-10.523l10.283,10.523H328.935z M367.078,85.88l-17.372-17.777l17.372-17.777l17.372,17.777L367.078,85.88z
	 M384.653,89.357l10.283-10.523l10.283,10.523H384.653z M423.086,86.178l-17.663-18.075l17.8-18.214l17.663,18.075L423.086,86.178z
	 M431.014,344.107l9.893,10.161l-9.893,10.161V344.107z"/>
<path style="fill:#DDDDDD;" d="M60.648,384.619H41.545l19.081-19.6l0.021,0.022v-21.547l-0.021,0.022l-17.393-17.865l17.393-17.865
	l0.021,0.022v-21.547l-0.021,0.022l-17.393-17.865l17.393-17.865l0.021,0.022v-21.547l-0.021,0.022l-17.393-17.865l17.393-17.865
	l0.021,0.022v-21.547l-0.021,0.022l-17.393-17.865l17.393-17.865l0.021,0.022v-21.547l-0.021,0.022l-9.955-10.226h9.977v-7.5v-0.14
	v-7.5H50.343l10.283-10.523l0.021,0.022V57.21l-0.021,0.022L50.611,46.983h10.135c0.898-8.419,8.04-15,16.693-15h-35.38
	c-9.259,0-16.792,7.533-16.792,16.792v47.942v0.14v270.175c5.474,11.355,11.766,22.24,18.792,32.587h16.589V384.619z M40.267,57.861
	l9.873,10.102l-9.873,10.102V57.861z M40.267,115.173l9.893,10.161l-9.893,10.161V115.173z M40.267,172.407l9.893,10.161
	l-9.893,10.161V172.407z M40.267,229.64l9.893,10.161l-9.893,10.161V229.64z M40.267,286.874l9.893,10.161l-9.893,10.161V286.874z
	 M40.267,344.107l9.893,10.161l-9.893,10.161V344.107z"/>
<g>
	<path style="fill:#647892;" d="M185.879,134.689h-65.868c-2.574,0-4.66-2.086-4.66-4.66v-28.758c0-2.574,2.086-4.66,4.66-4.66
		h65.868c2.574,0,4.66,2.086,4.66,4.66v28.758C190.538,132.602,188.452,134.689,185.879,134.689z"/>
	<path style="fill:#647892;" d="M288.971,134.689h-65.868c-2.574,0-4.66-2.086-4.66-4.66v-28.758c0-2.574,2.086-4.66,4.66-4.66
		h65.868c2.573,0,4.66,2.086,4.66,4.66v28.758C293.631,132.602,291.544,134.689,288.971,134.689z"/>
	<path style="fill:#647892;" d="M392.063,134.689h-65.868c-2.574,0-4.66-2.086-4.66-4.66v-28.758c0-2.574,2.086-4.66,4.66-4.66
		h65.868c2.574,0,4.66,2.086,4.66,4.66v28.758C396.723,132.602,394.637,134.689,392.063,134.689z"/>
</g>
<g>
	<path style="fill:#516B87;" d="M145.445,130.029v-28.758c0-2.574,2.086-4.66,4.66-4.66h-30.094c-2.573,0-4.66,2.086-4.66,4.66
		v28.758c0,2.573,2.086,4.66,4.66,4.66h30.094C147.531,134.689,145.445,132.602,145.445,130.029z"/>
	<path style="fill:#516B87;" d="M248.537,130.029v-28.758c0-2.574,2.086-4.66,4.66-4.66h-30.094c-2.574,0-4.66,2.086-4.66,4.66
		v28.758c0,2.573,2.086,4.66,4.66,4.66h30.094C250.623,134.689,248.537,132.602,248.537,130.029z"/>
	<path style="fill:#516B87;" d="M351.629,130.029v-28.758c0-2.574,2.086-4.66,4.66-4.66h-30.094c-2.573,0-4.66,2.086-4.66,4.66
		v28.758c0,2.573,2.086,4.66,4.66,4.66h30.094C353.715,134.689,351.629,132.602,351.629,130.029z"/>
</g>
<path style="fill:#EFEFEF;" d="M479.233,15H32.767c-4.143,0-7.5-3.357-7.5-7.5s3.357-7.5,7.5-7.5h446.466c4.143,0,7.5,3.357,7.5,7.5
	S483.375,15,479.233,15z"/>
<path style="fill:#DDDDDD;" d="M73.126,7.5c0-4.143,3.357-7.5,7.5-7.5H32.767c-4.143,0-7.5,3.357-7.5,7.5s3.357,7.5,7.5,7.5h47.859
	C76.483,15,73.126,11.643,73.126,7.5z"/>
<g>
	<path style="fill:#FAC149;" d="M320.802,250.398c-2.592,0-5.112-1.345-6.502-3.751l-13.594-23.544
		c-2.071-3.587-0.842-8.174,2.745-10.245c3.586-2.07,8.172-0.843,10.245,2.745l13.594,23.544c2.071,3.587,0.842,8.174-2.745,10.245
		C323.365,250.074,322.075,250.398,320.802,250.398z"/>
	<path style="fill:#FAC149;" d="M256.038,267.749c-4.143,0-7.5-3.357-7.5-7.5v-27.186c0-4.143,3.357-7.5,7.5-7.5s7.5,3.357,7.5,7.5
		v27.186C263.538,264.392,260.18,267.749,256.038,267.749z"/>
	<path style="fill:#FAC149;" d="M191.273,250.398c-1.273,0-2.562-0.324-3.743-1.006c-3.587-2.071-4.816-6.658-2.745-10.245
		l13.593-23.544c2.069-3.588,6.655-4.816,10.245-2.745c3.587,2.071,4.816,6.658,2.745,10.245l-13.593,23.544
		C196.386,249.054,193.865,250.398,191.273,250.398z"/>
</g>
<path style="fill:#647892;" d="M158.91,492.927h194.18c46.859-19.223,86.757-51.929,114.852-93.308H44.059
	C72.153,440.998,112.051,473.704,158.91,492.927z"/>
<path style="fill:#68C4FC;" d="M204.356,346.9h19.854c7.358,0,13.323,5.965,13.323,13.323s-5.965,13.323-13.323,13.323h-19.854
	c-7.358,0-13.323-5.965-13.323-13.323S196.998,346.9,204.356,346.9z"/>
<circle style="fill:#FC5B6F;" cx="152.94" cy="154.88" r="11.07"/>
<path style="fill:#F74352;" d="M152.945,154.88c-2.048-3.548-1.901-7.753,0.005-11.065c-1.884-0.003-3.793,0.465-5.542,1.475
	c-5.297,3.058-7.112,9.831-4.054,15.127c3.058,5.297,9.831,7.111,15.128,4.053c1.749-1.01,3.109-2.429,4.048-4.062
	C158.708,160.403,154.993,158.428,152.945,154.88z"/>
<circle style="fill:#FAC149;" cx="256.04" cy="154.88" r="11.07"/>
<path style="fill:#F8A748;" d="M256.038,154.88c-2.048-3.548-1.901-7.753,0.005-11.065c-1.884-0.003-3.793,0.465-5.542,1.475
	c-5.297,3.058-7.112,9.831-4.054,15.127c3.058,5.297,9.831,7.111,15.127,4.053c1.749-1.01,3.109-2.429,4.048-4.062
	C261.801,160.403,258.086,158.428,256.038,154.88z"/>
<circle style="fill:#28BF4F;" cx="359.13" cy="154.88" r="11.07"/>
<path style="fill:#20AF4B;" d="M359.13,154.88c-2.048-3.548-1.901-7.753,0.005-11.065c-1.884-0.003-3.793,0.465-5.542,1.475
	c-5.297,3.058-7.112,9.831-4.054,15.127c3.058,5.297,9.831,7.111,15.128,4.053c1.749-1.01,3.109-2.429,4.048-4.062
	C364.893,160.403,361.178,158.428,359.13,154.88z"/>
<path style="fill:#DDDDDD;" d="M451.374,384.619h-19.081l19.081-19.6v-21.503l-17.393-17.865l17.393-17.865v-21.503l-17.393-17.865
	l17.393-17.865V229.05l-17.393-17.865l17.393-17.865v-21.503l-17.393-17.865l17.393-17.865v-21.165c0-0.12-0.014-0.237-0.018-0.356
	l-9.905-10.175c-0.213-0.013-0.424-0.032-0.64-0.032h-24.796v287.762c0,4.143,3.357,7.5,7.5,7.5h27.859V384.619z M431.014,115.173
	l9.893,10.161l-9.893,10.161V115.173z M431.014,172.407l9.893,10.161l-9.893,10.161V172.407z M431.014,229.64l9.893,10.161
	l-9.893,10.161V229.64z M431.014,286.874l9.893,10.161l-9.893,10.161V286.874z M431.014,344.107l9.893,10.161l-9.893,10.161V344.107
	z"/>
<path style="fill:#546A82;" d="M183.199,411.529c0-4.97,2.584-9.36,6.471-11.91H44.059c28.095,41.379,67.993,74.085,114.852,93.308
	H183.2L183.199,411.529L183.199,411.529z"/>
<g>
</g>
<g>
</g>
<g>
</g>
<g>
</g>
<g>
</g>
<g>
</g>
<g>
</g>
<g>
</g>
<g>
</g>
<g>
</g>
<g>
</g>
<g>
</g>
<g>
</g>
<g>
</g>
<g>
</g>
</svg>
